<svg width="40" height="49" viewBox="0 0 40 49" fill="none" xmlns="http://www.w3.org/2000/svg">
<g filter="url(#filter0_d)">
<path d="M18.4219 38.5859C19.0195 39.5156 20.4141 39.5156 21.0117 38.5859C30.707 24.6406 32.5 23.1797 32.5 18C32.5 10.9609 26.7891 5.25 19.75 5.25C12.6445 5.25 7 10.9609 7 18C7 23.1797 8.72656 24.6406 18.4219 38.5859ZM19.75 23.3125C16.7617 23.3125 14.4375 20.9883 14.4375 18C14.4375 15.0781 16.7617 12.6875 19.75 12.6875C22.6719 12.6875 25.0625 15.0781 25.0625 18C25.0625 20.9883 22.6719 23.3125 19.75 23.3125Z" fill="#4571BA"/>
<path d="M18.4219 38.5859L20.1042 37.5044L20.0847 37.474L20.064 37.4443L18.4219 38.5859ZM21.0117 38.5859L19.3696 37.4443L19.3489 37.474L19.3294 37.5044L21.0117 38.5859ZM16.7395 39.6675C18.1244 41.8218 21.3091 41.8218 22.6941 39.6675L19.3294 37.5044C19.433 37.3433 19.6005 37.2832 19.7168 37.2832C19.8331 37.2832 20.0006 37.3433 20.1042 37.5044L16.7395 39.6675ZM22.6538 39.7276C27.4356 32.8498 30.4002 28.8675 32.1048 26.0379C32.9823 24.5812 33.6008 23.3145 33.9866 22.0066C34.3767 20.6843 34.5 19.4187 34.5 18H30.5C30.5 19.1711 30.3991 20.0306 30.1501 20.8748C29.8968 21.7333 29.4611 22.6747 28.6784 23.9738C27.0627 26.656 24.2832 30.3768 19.3696 37.4443L22.6538 39.7276ZM34.5 18C34.5 9.85637 27.8936 3.25 19.75 3.25V7.25C25.6845 7.25 30.5 12.0655 30.5 18H34.5ZM19.75 3.25C11.5332 3.25 5 9.86317 5 18H9C9 12.0587 13.7559 7.25 19.75 7.25V3.25ZM5 18C5 19.4134 5.1181 20.6761 5.50003 21.9964C5.87829 23.304 6.48729 24.5712 7.35748 26.0303C9.0485 28.8657 11.9952 32.8457 16.7797 39.7276L20.064 37.4443C15.1533 30.3809 12.389 26.6577 10.7929 23.9814C10.0195 22.6847 9.59095 21.7438 9.3425 20.8849C9.09772 20.0387 9 19.1764 9 18H5ZM19.75 21.3125C17.8663 21.3125 16.4375 19.8837 16.4375 18H12.4375C12.4375 22.0929 15.6571 25.3125 19.75 25.3125V21.3125ZM16.4375 18C16.4375 16.1663 17.8826 14.6875 19.75 14.6875V10.6875C15.6409 10.6875 12.4375 13.9899 12.4375 18H16.4375ZM19.75 14.6875C21.5673 14.6875 23.0625 16.1827 23.0625 18H27.0625C27.0625 13.9736 23.7764 10.6875 19.75 10.6875V14.6875ZM23.0625 18C23.0625 19.8674 21.5837 21.3125 19.75 21.3125V25.3125C23.7601 25.3125 27.0625 22.1091 27.0625 18H23.0625Z" fill="white"/>
</g>
<defs>
<filter id="filter0_d" x="0" y="0.25" width="39.5" height="48.0332" filterUnits="userSpaceOnUse" color-interpolation-filters="sRGB">
<feFlood flood-opacity="0" result="BackgroundImageFix"/>
<feColorMatrix in="SourceAlpha" type="matrix" values="0 0 0 0 0 0 0 0 0 0 0 0 0 0 0 0 0 0 127 0"/>
<feOffset dy="2"/>
<feGaussianBlur stdDeviation="2.5"/>
<feColorMatrix type="matrix" values="0 0 0 0 0 0 0 0 0 0 0 0 0 0 0 0 0 0 0.2 0"/>
<feBlend mode="normal" in2="BackgroundImageFix" result="effect1_dropShadow"/>
<feBlend mode="normal" in="SourceGraphic" in2="effect1_dropShadow" result="shape"/>
</filter>
</defs>
</svg>
