<?xml version="1.0" encoding="utf-8"?>
<!-- Generator: Adobe Illustrator 25.0.1, SVG Export Plug-In . SVG Version: 6.00 Build 0)  -->
<svg version="1.1" id="Layer_1" xmlns="http://www.w3.org/2000/svg" xmlns:xlink="http://www.w3.org/1999/xlink" x="0px" y="0px"
	 viewBox="0 0 16 18.7" style="enable-background:new 0 0 16 18.7;" xml:space="preserve">
<style type="text/css">
	.st0{fill:#4571BA;}
	.st1{fill:none;stroke:#FFFFFF;stroke-miterlimit:10;}
</style>
<g>
	
		<image style="overflow:visible;opacity:0.4;" width="19" height="23" xlink:href="FFB238076F04E1B7.png"  transform="matrix(1 0 0 1 -1.0521 -1.4573)">
	</image>
	<g>
		<path class="st0" d="M7.5,15.2c0.3,0.4,0.9,0.4,1.1,0C13,9,13.7,8.4,13.7,6.1c0-3.1-2.5-5.6-5.6-5.6C5,0.5,2.5,3,2.5,6.1
			C2.5,8.4,3.3,9,7.5,15.2z M8.1,8.5c-1.3,0-2.3-1-2.3-2.3c0-1.3,1-2.3,2.3-2.3c1.3,0,2.3,1.1,2.3,2.3C10.5,7.4,9.4,8.5,8.1,8.5z"/>
		<path class="st1" d="M7.5,15.2c0.3,0.4,0.9,0.4,1.1,0C13,9,13.7,8.4,13.7,6.1c0-3.1-2.5-5.6-5.6-5.6C5,0.5,2.5,3,2.5,6.1
			C2.5,8.4,3.3,9,7.5,15.2z M8.1,8.5c-1.3,0-2.3-1-2.3-2.3c0-1.3,1-2.3,2.3-2.3c1.3,0,2.3,1.1,2.3,2.3C10.5,7.4,9.4,8.5,8.1,8.5z"/>
	</g>
</g>
</svg>
