<?xml version="1.0" encoding="UTF-8"?>
<svg width="640px" height="156px" viewBox="0 0 640 156" version="1.1" xmlns="http://www.w3.org/2000/svg" xmlns:xlink="http://www.w3.org/1999/xlink">
    <!-- Generator: Sketch 50.2 (55047) - http://www.bohemiancoding.com/sketch -->
    <title>Logo</title>
    <desc>Created with Sketch.</desc>
    <defs>
        <polygon id="path-1" points="0 155.54 639.089 155.54 639.089 0 0 0"></polygon>
    </defs>
    <g id="Page-1" stroke="none" stroke-width="1" fill="none" fill-rule="evenodd">
        <g id="Logo">
            <mask id="mask-2" fill="white">
                <use xlink:href="#path-1"></use>
            </mask>
            <g id="Clip-6"></g>
            <path d="M184.1699,26.1719 L201.8929,26.1719 L201.8929,104.0729 C201.8929,111.6459 204.8939,115.3589 211.3259,115.3589 C217.7589,115.3589 220.7609,111.6459 220.7609,104.0729 L220.7609,26.1719 L238.4829,26.1719 L238.4829,103.3579 C238.4829,121.0759 228.1919,130.7969 211.3259,130.7969 C194.4599,130.7969 184.1699,121.0759 184.1699,103.3579 L184.1699,26.1719 Z" id="Fill-1" fill="#2C405A" mask="url(#mask-2)"></path>
            <polygon id="Fill-3" fill="#2C405A" mask="url(#mask-2)" points="255.6303 129.3701 255.6303 26.1721 272.0663 26.1721 293.6513 85.2011 293.9353 85.2011 293.9353 26.1721 309.9443 26.1721 309.9443 129.3701 294.5083 129.3701 271.9233 64.9061 271.6383 64.9061 271.6383 129.3701"></polygon>
            <polygon id="Fill-5" fill="#2C405A" mask="url(#mask-2)" points="329.521 129.37 347.245 129.37 347.245 26.172 329.521 26.172"></polygon>
            <polygon id="Fill-7" fill="#2C405A" mask="url(#mask-2)" points="377.1152 41.6103 359.9652 41.6103 359.9652 26.1723 411.9902 26.1723 411.9902 41.6103 394.8402 41.6103 394.8402 129.3703 377.1152 129.3703"></polygon>
            <polygon id="Fill-8" fill="#2C405A" mask="url(#mask-2)" points="422.4209 129.3701 422.4209 26.1721 469.8729 26.1721 469.8729 41.6101 440.1429 41.6101 440.1429 68.1941 463.0119 68.1941 463.0119 83.6321 440.1429 83.6321 440.1429 113.9311 471.8709 113.9311 471.8709 129.3701"></polygon>
            <path d="M517.600098,26.1719 L535.325098,26.1719 L535.325098,104.0729 C535.325098,111.6459 538.326098,115.3589 544.757098,115.3589 C551.190098,115.3589 554.189098,111.6459 554.189098,104.0729 L554.189098,26.1719 L571.913098,26.1719 L571.913098,103.3579 C571.913098,121.0759 561.623098,130.7969 544.757098,130.7969 C527.892098,130.7969 517.600098,121.0759 517.600098,103.3579 L517.600098,26.1719 Z" id="Fill-9" fill="#2C405A" mask="url(#mask-2)"></path>
            <path d="M621.3642,51.6133 C620.6512,42.7533 615.9352,40.1803 611.9302,40.1803 C606.2152,40.1803 603.0692,43.8963 603.0692,50.3283 C603.0692,67.9073 639.0892,76.3443 639.0892,104.3573 C639.0892,121.3663 627.6542,130.7973 611.0752,130.7973 C594.6352,130.7973 585.2052,117.6483 584.4892,102.2093 L601.3542,99.7823 C602.0712,110.2183 606.2152,115.3583 611.9302,115.3583 C618.0792,115.3583 622.2222,112.0723 622.2222,105.9263 C622.2222,85.4913 586.2062,80.0563 586.2062,50.4703 C586.2062,34.0333 596.2102,24.7423 613.6472,24.7423 C628.0832,24.7423 636.6592,35.1763 638.2302,49.7573 L621.3642,51.6133 Z" id="Fill-10" fill="#2C405A" mask="url(#mask-2)"></path>
            <path d="M42.8901,155.54 L43.9051,155.54 C43.8731,155.52 43.8401,155.508 43.8101,155.491 C43.5011,155.506 43.2001,155.54 42.8901,155.54" id="Fill-11" fill="#517EBF" mask="url(#mask-2)"></path>
            <path d="M78.6631,149.0566 C80.2561,149.0566 81.1861,148.5026 82.3391,147.6026 C86.8991,144.0416 88.7781,139.0636 88.7781,132.5966 L88.7781,109.7196 L88.7781,100.9096 L88.7781,55.9896 L88.7781,35.0656 C74.4901,51.6586 65.8361,73.2376 65.8361,96.8516 L65.8361,109.6536 L65.8361,132.5966 C65.8361,135.4386 65.2661,138.1306 64.3141,140.6386 C67.1381,145.6566 72.3861,149.0566 78.6631,149.0566" id="Fill-12" fill="#2C405A" mask="url(#mask-2)"></path>
            <path d="M98.6089,132.5947 L98.6089,113.4747 L98.6089,56.1717 L98.6089,39.7327 C98.6089,22.7527 107.8439,7.9337 121.5539,-0.0003 L121.5539,20.6947 L121.5539,79.4677 L121.5539,113.4747 L121.3859,113.4747 C119.4399,137.0227 99.7189,155.5397 75.6669,155.5397 C88.3379,155.5397 98.6089,145.2667 98.6089,132.5947" id="Fill-13" fill="#2C405A" mask="url(#mask-2)"></path>
            <path d="M33.6191,151.9619 C27.2111,147.8899 22.9451,140.7499 22.9451,132.5949 L22.9451,113.4749 L22.9451,56.1719 L22.9451,39.7329 C22.9451,22.7529 13.7101,7.9339 0.0001,-0.0001 L0.0001,20.6939 L0.0001,79.4679 L0.0001,113.4749 L0.1681,113.4749 C1.8421,133.7259 16.6721,150.2159 36.0861,154.4499 C35.2151,153.6669 34.3911,152.8389 33.6191,151.9619" id="Fill-14" fill="#2C405A" mask="url(#mask-2)"></path>
            <path d="M33.6191,151.9619 C34.3911,152.8389 35.2151,153.6669 36.0861,154.4499 C39.2481,155.1419 42.5191,155.5399 45.8881,155.5399 C41.3701,155.5399 37.1701,154.2149 33.6191,151.9619" id="Fill-15" fill="#517EBF" mask="url(#mask-2)"></path>
            <path d="M55.7207,132.5967 L55.7207,109.6537 L55.7207,96.8517 C55.7207,73.2377 47.0627,51.6587 32.7757,35.0657 L32.7757,55.9897 L32.7757,100.9097 L32.7757,109.7197 L32.7757,132.5967 C32.7757,145.2667 43.0517,155.5397 55.7207,155.5397 L78.6627,155.5397 C65.9897,155.5397 55.7207,145.2667 55.7207,132.5967" id="Fill-16" fill="#2C405A" mask="url(#mask-2)"></path>
            <polygon id="Fill-17" fill="#2C405A" mask="url(#mask-2)" points="49.8867 38.6767 54.0457 25.8687 43.1467 17.9587 56.6197 17.9587 60.7787 5.1527 64.9437 17.9587 78.4077 17.9587 67.5137 25.8737 71.6767 38.6767 60.7787 30.7617"></polygon>
        </g>
    </g>
</svg>